<svg width="107" height="108" xmlns="http://www.w3.org/2000/svg" xmlns:xlink="http://www.w3.org/1999/xlink" xml:space="preserve" overflow="hidden"><g transform="translate(-208 -227)"><path d="M101.072 42.2543C100.164 40.9789 98.7835 40.1196 97.238 39.8682 94.5605 39.4045 91.8784 38.9862 89.1916 38.6127L89.1916 19.4134C89.1984 16.1212 87.1069 13.1905 83.9914 12.1267L83.9344 12.1088 83.8737 12.1088 57.2165 4.0446C56.0188 3.64207 54.7637 3.43729 53.5 3.43827 52.2378 3.43736 50.9837 3.64217 49.7871 4.0446L23.1263 12.1017 23.0656 12.1017 23.0086 12.1195C19.8966 13.182 17.806 16.1072 17.8084 19.3955L17.8084 38.5949C15.1215 38.9705 12.4394 39.3892 9.76197 39.8504 8.2166 40.1018 6.83602 40.961 5.9278 42.2365 5.17748 43.2965 4.88801 44.6154 5.1253 45.8923L9.04863 66.3614C9.61773 69.1199 12.272 70.9299 15.0478 70.4524 15.9751 70.2919 16.9024 70.1421 17.8333 69.9923 17.8868 75.0997 19.8378 80.061 23.647 84.744 26.5538 88.3107 30.5556 91.7418 35.5383 94.9161 40.8358 98.2549 46.4776 101.013 52.3658 103.144L53.5357 103.544 54.702 103.134C60.5809 100.956 66.2141 98.1643 71.5081 94.8056 76.5014 91.5956 80.4854 88.1858 83.3851 84.6299 87.1943 79.9611 89.1488 75.0355 89.2023 70.0065 90.1332 70.1563 91.0606 70.3061 91.9879 70.4666 92.28 70.5162 92.576 70.5412 92.8724 70.5415 95.3516 70.5444 97.4902 68.801 97.987 66.3721L101.893 45.9101C102.124 44.6308 101.828 43.3122 101.072 42.2543Z" fill="#002050" transform="matrix(1 0 0 1.00935 208 227)"/><path d="M21.4 69.3182 21.4 69.7961C21.4 88.8171 53.5 99.7775 53.5 99.7775 53.5 99.7775 85.6 88.5354 85.6 69.7961L85.6 69.4751C64.3163 66.3692 42.6983 66.3165 21.4 69.3182Z" fill="#0064B5" transform="matrix(1 0 0 1.00935 208 227)"/><path d="M85.6 38.1384 85.6 19.5453C85.6021 17.7884 84.4868 16.2245 82.8251 15.6541L56.1286 7.58273C54.4266 7.00254 52.5805 7.00254 50.8785 7.58273L24.1606 15.6541C22.5045 16.2294 21.3958 17.7921 21.4 19.5453L21.4 38.1384C42.7158 35.4551 64.2842 35.4551 85.6 38.1384Z" fill="#FFFFFF" transform="matrix(1 0 0 1.00935 208 227)"/><path d="M37.0933 31.5757C36.6896 31.7721 36.2438 31.8664 35.7951 31.8503 35.1927 31.8765 34.6082 31.6427 34.1901 31.2083 33.7784 30.744 33.5635 30.1377 33.5909 29.5177 33.5622 28.8448 33.8065 28.1888 34.2685 27.6987 34.7139 27.2292 35.3371 26.9701 35.9841 26.9854 36.3632 26.9731 36.7406 27.0387 37.0933 27.178L37.0933 27.7629C36.7524 27.5769 36.3689 27.4811 35.9805 27.4847 35.4855 27.465 35.0065 27.6616 34.668 28.0233 34.3231 28.4165 34.143 28.9274 34.1651 29.45 34.1388 29.9492 34.3076 30.439 34.6359 30.816 34.9525 31.1566 35.4016 31.3428 35.8664 31.326 36.2948 31.3427 36.7195 31.2403 37.0933 31.03ZM41.8834 31.7719 39.3867 31.7719 39.3867 27.0817 41.7692 27.0817 41.7692 27.581 39.9467 27.581 39.9467 29.1397 41.6408 29.1397 41.6408 29.6354 39.9467 29.6354 39.9467 31.2761 41.8834 31.2761ZM47.4902 31.7719 46.8375 31.7719 46.0528 30.4593C45.9907 30.3496 45.9205 30.2446 45.8424 30.1455 45.7828 30.0668 45.7133 29.9961 45.6355 29.935 45.5649 29.8829 45.4868 29.842 45.4037 29.8138 45.3145 29.788 45.2218 29.776 45.129 29.7781L44.6761 29.7781 44.6761 31.7719 44.1268 31.7719 44.1268 27.0817 45.5285 27.0817C45.7204 27.0795 45.9116 27.106 46.0956 27.1602 46.2607 27.206 46.4148 27.2849 46.5486 27.392 46.6763 27.4991 46.7783 27.6331 46.8482 27.7843 46.9791 28.1025 46.9905 28.4571 46.8803 28.783 46.8335 28.9134 46.7633 29.0342 46.6734 29.1397 46.58 29.2477 46.469 29.3393 46.3453 29.4107 46.2108 29.4908 46.0653 29.5508 45.9137 29.5891 45.9865 29.6207 46.0546 29.6614 46.117 29.7103 46.1787 29.7559 46.2351 29.8086 46.2846 29.8673 46.3403 29.9327 46.3916 30.0019 46.438 30.0741 46.4915 30.1526 46.5486 30.2418 46.6128 30.3452ZM44.6761 27.581 44.6761 29.2788 45.4215 29.2788C45.5513 29.2819 45.6808 29.2613 45.8031 29.2181 45.9151 29.1796 46.0182 29.1189 46.1063 29.0398 46.1937 28.961 46.2618 28.8635 46.306 28.7545 46.3567 28.635 46.3809 28.5061 46.3774 28.3764 46.3923 28.1543 46.3025 27.9379 46.1348 27.7915 45.9312 27.6356 45.6772 27.5607 45.4215 27.581ZM51.9521 27.581 50.5967 27.581 50.5967 31.7719 50.0475 31.7719 50.0475 27.581 48.6957 27.581 48.6957 27.0817 51.9521 27.0817ZM54.57 31.7719 54.0172 31.7719 54.0172 27.0817 54.57 27.0817ZM59.5384 27.581 57.7051 27.581 57.7051 29.2039 59.3993 29.2039 59.3993 29.6961 57.7051 29.6961 57.7051 31.7719 57.1558 31.7719 57.1558 27.0817 59.5384 27.0817ZM62.3168 31.7719 61.7675 31.7719 61.7675 27.0817 62.3168 27.0817ZM67.3815 31.7719 64.8848 31.7719 64.8848 27.0817 67.2673 27.0817 67.2673 27.581 65.4376 27.581 65.4376 29.1397 67.1318 29.1397 67.1318 29.6354 65.4376 29.6354 65.4376 31.2761 67.3743 31.2761ZM69.6249 31.7719 69.6249 27.0817 70.9196 27.0817C72.5842 27.0817 73.4163 27.8438 73.4163 29.3679 73.4444 30.0217 73.1944 30.6567 72.7279 31.1156 72.2246 31.5702 71.5612 31.8063 70.8839 31.7719ZM70.1742 27.581 70.1742 31.2761 70.8875 31.2761C71.41 31.3067 71.9233 31.1283 72.3142 30.7803 72.6765 30.4083 72.8641 29.9004 72.8313 29.3822 72.8313 28.1802 72.1893 27.5989 70.9125 27.5989ZM40.6885 23.0621 39.2833 23.0621 39.2833 19.2885C39.2833 18.8819 39.2833 18.429 39.3368 17.9368L39.3011 17.9368C39.2537 18.2201 39.1884 18.5 39.1049 18.7749L37.6283 23.0549 36.4656 23.0549 34.9533 18.8177C34.8702 18.5281 34.8035 18.2339 34.7536 17.9368L34.7144 17.9368C34.7536 18.5609 34.7714 19.1066 34.7714 19.5739L34.7714 23.0621 33.5017 23.0621 33.5017 16.7633 35.5811 16.7633 36.8722 20.5012C36.9696 20.7945 37.0438 21.095 37.0933 21.4L37.1183 21.4C37.1968 21.0433 37.2824 20.7509 37.368 20.4905L38.6591 16.7633 40.6885 16.7633ZM42.6894 17.8333C42.4769 17.8411 42.2696 17.7656 42.1116 17.6229 41.9658 17.4924 41.8837 17.305 41.8869 17.1093 41.8812 16.9141 41.964 16.7268 42.1116 16.5993 42.4522 16.3376 42.9266 16.3376 43.2672 16.5993 43.4124 16.7284 43.4934 16.915 43.4884 17.1093 43.4941 17.3068 43.4135 17.497 43.2672 17.63 43.1078 17.7692 42.9009 17.842 42.6894 17.8333ZM43.3742 23.0478 41.9832 23.0478 41.9832 18.5467 43.3742 18.5467ZM47.9574 22.898C47.5351 23.1029 47.0672 23.1962 46.5985 23.1691 45.9765 23.1969 45.3698 22.9703 44.9186 22.5413 44.4867 22.1142 44.2538 21.5255 44.2766 20.9185 44.2409 20.2456 44.491 19.589 44.965 19.1102 45.4636 18.652 46.1256 18.4131 46.8018 18.4468 47.1988 18.4191 47.5965 18.4928 47.9574 18.6608L47.9574 19.8378C47.6778 19.625 47.3354 19.5109 46.9837 19.5132 46.6317 19.4961 46.2886 19.6252 46.035 19.8699 45.5806 20.4134 45.5699 21.2013 46.01 21.7567 46.2572 21.9915 46.5899 22.1141 46.9302 22.0955 47.2936 22.0907 47.6478 21.9777 47.9467 21.7709ZM51.8023 19.8128C51.6225 19.7169 51.421 19.669 51.2173 19.6737 50.9391 19.6589 50.672 19.7832 50.504 20.0054 50.32 20.2704 50.2294 20.5892 50.2472 20.9114L50.2472 23.0514 48.8633 23.0514 48.8633 18.5467 50.2508 18.5467 50.2508 19.3848C50.3852 18.8402 50.8774 18.4602 51.4385 18.4682 51.5597 18.4612 51.6814 18.4795 51.7951 18.5217ZM54.57 23.1833C53.9148 23.2252 53.271 22.9985 52.7867 22.5556 52.3412 22.0991 52.1072 21.477 52.1411 20.84 52.1058 20.1886 52.3497 19.553 52.8116 19.0924 53.3067 18.6528 53.9551 18.426 54.6164 18.4611 55.2641 18.4238 55.8989 18.6517 56.3747 19.0924 56.8106 19.5356 57.0421 20.1405 57.0132 20.7616 57.0517 21.4214 56.8138 22.0674 56.3569 22.5449 55.8715 22.9898 55.2273 23.22 54.57 23.1833ZM54.6057 19.5275C54.3107 19.5113 54.0254 19.6372 53.8388 19.8663 53.643 20.1452 53.5474 20.4821 53.5678 20.8222 53.5678 21.6877 53.9162 22.1205 54.6128 22.1205 55.3094 22.1205 55.6425 21.677 55.6115 20.7901 55.6043 19.9388 55.2655 19.5132 54.595 19.5132ZM57.6231 22.9408 57.6231 21.8173C57.8381 21.9467 58.0682 22.0497 58.3079 22.124 58.5172 22.1884 58.7344 22.222 58.9534 22.2239 59.1521 22.2331 59.3504 22.199 59.5348 22.124 59.6632 22.0764 59.7484 21.9542 59.7488 21.8173 59.7506 21.7331 59.7153 21.6523 59.6525 21.5962 59.578 21.5322 59.4938 21.4804 59.4028 21.4428 59.2948 21.397 59.1838 21.3577 59.0711 21.3251 58.9499 21.2915 58.8311 21.251 58.7145 21.2038 58.5504 21.1447 58.392 21.0719 58.2401 20.9863 58.1074 20.9171 57.9869 20.8268 57.8834 20.7188 57.7907 20.6147 57.7194 20.4936 57.673 20.3621 57.6199 20.2072 57.5945 20.0442 57.5981 19.8806 57.5928 19.6529 57.6509 19.4282 57.7657 19.2315 57.8738 19.0497 58.0243 18.8967 58.2044 18.7856 58.4035 18.6681 58.6221 18.5871 58.85 18.5467 59.0922 18.4918 59.3401 18.4643 59.5883 18.4646 59.7912 18.4662 59.9938 18.4816 60.1946 18.511 60.3994 18.5438 60.6019 18.5891 60.801 18.6465L60.801 19.7165C60.6244 19.6118 60.4332 19.5337 60.2339 19.4847 60.0416 19.4357 59.844 19.4105 59.6454 19.4098 59.5594 19.4092 59.4735 19.4163 59.3886 19.4312 59.3144 19.4452 59.2423 19.4692 59.1746 19.5025 59.1175 19.5299 59.0672 19.5702 59.0283 19.6202 58.9927 19.6688 58.9741 19.7277 58.9748 19.7879 58.9748 19.8652 59.0026 19.9399 59.0533 19.9983 59.1136 20.0594 59.1835 20.11 59.2602 20.1481 59.3522 20.1938 59.4474 20.232 59.5455 20.2622L59.8558 20.3657C60.0266 20.4248 60.1936 20.4951 60.3551 20.5761 60.496 20.6475 60.6255 20.7388 60.7403 20.8472 60.847 20.9469 60.9311 21.0686 60.9864 21.2038 61.0474 21.3606 61.0763 21.5279 61.072 21.696 61.0792 21.9346 61.02 22.1704 60.9008 22.3773 60.786 22.567 60.6269 22.7261 60.4372 22.8409 60.2317 22.9631 60.0074 23.0511 59.7738 23.1013 59.517 23.1549 59.2552 23.1812 58.9927 23.1798 58.5258 23.1804 58.0621 23.0996 57.6231 22.9408ZM64.0252 23.1833C63.37 23.2252 62.7262 22.9985 62.2419 22.5556 61.7989 22.0977 61.5664 21.4763 61.5999 20.84 61.5632 20.1891 61.806 19.5534 62.2669 19.0924 62.7637 18.653 63.4128 18.4263 64.0752 18.4611 64.7225 18.425 65.357 18.6527 65.8335 19.0924 66.2669 19.5369 66.4969 20.1413 66.4684 20.7616 66.5069 21.4214 66.269 22.0674 65.8121 22.5449 65.3267 22.9898 64.6826 23.22 64.0252 23.1833ZM64.0609 19.5275C63.7666 19.5113 63.4827 19.6373 63.2976 19.8663 63.099 20.144 63.0023 20.4815 63.023 20.8222 63.023 21.6877 63.3725 22.1205 64.0716 22.1205 64.7707 22.1205 65.1024 21.677 65.0667 20.7901 65.0667 19.9388 64.7314 19.5132 64.0609 19.5132ZM70.1849 17.4767C70.0219 17.4095 69.8475 17.3744 69.6713 17.3732 69.2254 17.3732 69.0043 17.6122 69.0043 18.0866L69.0043 18.5467 70.0315 18.5467 70.0315 19.5739 69.0043 19.5739 69.0043 23.0514 67.6169 23.0514 67.6169 19.5846 66.8607 19.5846 66.8607 18.5467 67.6169 18.5467 67.6169 18.001C67.5994 17.5347 67.7841 17.0837 68.1233 16.7633 68.4985 16.4346 68.9875 16.2657 69.4858 16.2925 69.7269 16.2848 69.9673 16.3149 70.1991 16.3817ZM73.5946 23.0086C73.3018 23.1322 72.9847 23.1871 72.6673 23.1691 71.6875 23.1691 71.1978 22.6614 71.1978 21.6461L71.1978 19.5846 70.4666 19.5846 70.4666 18.5467 71.1978 18.5467 71.1978 17.5872 72.5817 17.1913 72.5817 18.5467 73.5946 18.5467 73.5946 19.5739 72.5817 19.5739 72.5817 21.4C72.5817 21.8672 72.7671 22.1133 73.1416 22.1133 73.3011 22.1096 73.4569 22.0654 73.5946 21.9849Z" fill="#17154C" transform="matrix(1 0 0 1.00935 208 227)"/><path d="M53.5 73.0988 55.3333 78.7342 61.2611 78.7342 56.4639 82.2188 58.2972 87.8541 53.5 84.3695 48.7028 87.8541 50.5361 82.2188 45.7389 78.7342 51.6667 78.7342Z" fill="#FFFFFF" transform="matrix(1 0 0 1.00935 208 227)"/><path d="M101.072 42.2543C100.164 40.9789 98.7835 40.1196 97.238 39.8682 93.3671 39.2073 89.4877 38.6306 85.6 38.1384 64.2745 35.4527 42.6969 35.4527 21.3715 38.1384 17.5005 38.6306 13.6306 39.2073 9.76197 39.8682 8.2166 40.1196 6.83602 40.9789 5.9278 42.2543 5.17748 43.3143 4.88801 44.6333 5.1253 45.9101L9.04863 66.3792C9.61773 69.1377 12.272 70.9478 15.0478 70.4702 17.5183 70.0447 19.9936 69.6606 22.4736 69.3182 43.7887 66.365 65.4162 66.4684 86.7021 69.6249 88.4687 69.8842 90.2306 70.166 91.9879 70.4702 92.28 70.5198 92.576 70.5447 92.8724 70.5451 95.3516 70.548 97.4902 68.8046 97.987 66.3757L101.893 45.9137C102.125 44.6333 101.829 43.3129 101.072 42.2543Z" fill="#505050" transform="matrix(1 0 0 1.00935 208 227)"/><path d="M96.8921 41.8798C68.1772 36.9293 38.8264 36.9293 10.1115 41.8798 9.10766 42.0389 8.2089 42.5924 7.61483 43.417 7.17667 44.0259 7.00304 44.7863 7.13333 45.5249L11.0567 65.9833C11.4062 67.6547 13.0204 68.7461 14.7018 68.4479 40.3893 64.0163 66.6464 64.0163 92.3339 68.4479 94.0091 68.7318 95.6102 67.645 95.9647 65.9833L99.8667 45.5285C100.001 44.7895 99.8299 44.0276 99.3923 43.417 98.7974 42.5914 97.8971 42.0382 96.8921 41.8798Z" fill="#FFFFFF" transform="matrix(1 0 0 1.00935 208 227)"/><path d="M19.0674 51.8415 16.8204 52.1625 17.0415 53.7283 19.1102 53.4322 19.2743 54.5985 17.2056 54.891 17.5623 57.3698 16.1356 57.5731 15.2297 51.1959 18.9033 50.6716ZM25.9154 53.5856C26.1151 55.507 25.3186 56.5613 23.5257 56.7492 21.7852 56.9301 20.8175 56.0812 20.6225 54.2026L20.2373 50.504 21.6853 50.3542 22.0741 54.0707C22.1811 55.105 22.6376 55.5829 23.4508 55.4973 24.264 55.4117 24.5886 54.8732 24.4852 53.8745L24.0928 50.1045 25.5195 49.9547ZM33.5267 55.8112 32.0679 55.9182 29.1183 52.0733C28.9471 51.8486 28.8294 51.6774 28.7616 51.5633 28.8171 51.9071 28.8539 52.2534 28.8722 52.6012L29.1254 56.1322 27.7594 56.2285 27.2993 49.8085 28.8579 49.6979 31.6863 53.4251C31.8147 53.5927 31.9359 53.7604 32.0429 53.928 31.9922 53.6377 31.9588 53.3448 31.9431 53.0506L31.6898 49.4839 33.0559 49.3841ZM35.1281 55.7256 34.8321 49.3056 37.1112 49.2022C39.3963 49.0952 40.5851 50.0878 40.6778 52.1803 40.7613 53.0745 40.4617 53.9622 39.8539 54.6235 39.2041 55.2726 38.322 55.6357 37.4036 55.6329ZM36.3336 50.4041 36.5227 54.4808 37.236 54.4487C37.7878 54.4541 38.3156 54.2247 38.6876 53.8174 39.0443 53.378 39.2123 52.8148 39.1549 52.2517 39.1609 51.7138 38.9437 51.1974 38.5557 50.825 38.1337 50.4726 37.5866 50.3068 37.0398 50.3649ZM47.5722 55.2833 45.9922 55.3226 45.4964 53.8959 43.2066 53.953 42.7893 55.3796 41.22 55.4189 43.3992 48.924 45.1183 48.8776ZM45.1362 52.7867 44.3907 50.6467C44.3287 50.4601 44.2869 50.2679 44.2659 50.0724L44.2267 50.0724C44.2156 50.2632 44.1835 50.4523 44.1304 50.636L43.4848 52.8366ZM55.8647 55.2405 54.438 55.2405 54.438 51.385C54.438 50.9712 54.438 50.5111 54.488 50.0082L54.4523 50.0082C54.4045 50.2964 54.3378 50.5814 54.2526 50.8607L52.7581 55.2477 51.574 55.2477 50.0225 50.9177C49.9376 50.6231 49.8688 50.3242 49.8156 50.0225L49.7764 50.0225C49.8192 50.6574 49.8406 51.2138 49.8406 51.6917L49.8406 55.2584 48.5316 55.2584 48.5067 48.8277 50.6288 48.8277 51.9592 52.6404C52.0655 52.939 52.1432 53.2471 52.191 53.5606L52.2196 53.5606C52.287 53.246 52.3715 52.9354 52.4728 52.6297L53.7746 48.817 55.8433 48.817ZM61.3467 55.3297 57.484 55.2833 57.5838 48.8455 61.2967 48.9026 61.2789 50.0867 59.0176 50.051 58.9927 51.4777 61.1006 51.5098 61.0827 52.6868 58.9748 52.6547 58.9534 54.1277 61.3645 54.167ZM68.3302 55.5508 66.8643 55.5009 64.3498 51.36C64.2389 51.1838 64.1376 51.0015 64.0466 50.8143L64.0466 51.8558 63.9254 55.3939 62.5558 55.3475 62.7769 48.9275 64.3355 48.981 66.7573 52.9864C66.8679 53.1683 66.9713 53.3431 67.064 53.5214L67.0533 53.5214C67.033 53.2268 67.033 52.9315 67.0533 52.6369L67.1746 49.0702 68.5442 49.1166ZM74.7502 50.6253 72.9134 50.5254 72.628 55.7755 71.1728 55.6971 71.4617 50.4469 69.6356 50.3471 69.6998 49.1665 74.8144 49.4483ZM80.489 56.3284 78.9125 56.2071 78.5558 54.7448 76.2732 54.5736 75.7132 55.9681 74.1474 55.8504 76.9687 49.6052 78.6807 49.7336ZM78.3169 53.6106 77.789 51.3992C77.7466 51.207 77.7252 51.0112 77.7248 50.8143L77.6891 50.8143C77.6588 51.0037 77.6075 51.1892 77.5358 51.3671L76.6833 53.5ZM85.2433 56.817 81.427 56.4282 82.0797 50.0082 83.5242 50.1545 82.9892 55.3903 85.361 55.6329ZM85.9781 56.6529 86.1671 55.2263C86.6037 55.7081 87.1957 56.0209 87.8399 56.1108 87.9996 56.1297 88.1616 56.1297 88.3214 56.1108 88.4444 56.1019 88.5653 56.0716 88.678 56.0216 88.769 55.9824 88.8485 55.9211 88.9099 55.8433 88.9641 55.7713 88.9983 55.6864 89.0097 55.5972 89.0297 55.4749 89.0083 55.3493 88.9491 55.2405 88.8806 55.1239 88.7939 55.0194 88.6923 54.9302 88.566 54.8186 88.4298 54.7184 88.2857 54.6306 88.1288 54.5308 87.954 54.4273 87.7685 54.3239 87.3623 54.107 87.0149 53.795 86.7556 53.4144 86.5505 53.0731 86.472 52.67 86.5345 52.2766 86.5869 51.6931 86.9436 51.1806 87.4725 50.9284 87.7382 50.8018 88.0246 50.7233 88.3178 50.6966 88.642 50.6634 88.9687 50.6695 89.2915 50.7144 89.5879 50.7522 89.8811 50.8118 90.1689 50.8928 90.4057 50.9623 90.6354 51.0558 90.8537 51.171L90.6754 52.5049C90.5769 52.4136 90.4692 52.3323 90.3544 52.2624 90.2406 52.1889 90.1215 52.1247 89.9977 52.0698 89.8714 52.0152 89.7416 51.9699 89.6089 51.9342 89.4916 51.9011 89.3725 51.875 89.2523 51.8558 89.1017 51.8383 88.9498 51.8383 88.7993 51.8558 88.6766 51.8643 88.556 51.8932 88.4426 51.9414 88.3506 51.9802 88.2686 52.0402 88.2037 52.1161 88.142 52.1875 88.1034 52.2759 88.0931 52.3694 88.0778 52.4717 88.0938 52.5762 88.1395 52.669 88.1912 52.7713 88.2614 52.8633 88.3463 52.94 88.4569 53.042 88.5764 53.1337 88.703 53.2147 88.8421 53.3074 88.999 53.4037 89.1774 53.5036 89.4006 53.6345 89.615 53.7796 89.8194 53.9387 89.9952 54.0757 90.1521 54.2351 90.2866 54.4131 90.4107 54.5818 90.5002 54.7733 90.5505 54.9766 90.6069 55.2102 90.6154 55.4528 90.5755 55.6899 90.5452 56.0027 90.4346 56.3027 90.2545 56.5602 90.0911 56.781 89.8754 56.9575 89.6268 57.0738 89.3586 57.1976 89.0693 57.27 88.7743 57.2878 88.4462 57.3117 88.1163 57.3021 87.7899 57.2593 87.4547 57.2143 87.124 57.1391 86.802 57.0346 86.5095 56.9504 86.2317 56.8216 85.9781 56.6529Z" fill="#282828" transform="matrix(1 0 0 1.00935 208 227)"/></g></svg>